<svg xmlns="http://www.w3.org/2000/svg" viewBox="0 0 371.86 175.84"><defs><style>.cls-1{fill:#fff;stroke:#fff;stroke-linecap:round;stroke-linejoin:round;stroke-width:2px;}.cls-2{fill:#126e82;}.cls-3{fill:#51c4d3;}.cls-3,.cls-4{fill-rule:evenodd;}.cls-4{fill:none;}</style></defs><title>logo-culture-city-app</title><g id="Calque_2" data-name="Calque 2"><g id="Calque_1-2" data-name="Calque 1"><path class="cls-1" d="M81.62,50.32h227a62.26,62.26,0,0,1,62.26,62.26v0a62.26,62.26,0,0,1-62.26,62.26H142.94a62.26,62.26,0,0,1-62.26-62.26V51.26A.95.95,0,0,1,81.62,50.32Z"/><path class="cls-2" d="M135.05,108.19a12.87,12.87,0,0,1-5.16-5.54,20.62,20.62,0,0,1,0-16.85,12.88,12.88,0,0,1,5.16-5.52,15.46,15.46,0,0,1,7.85-1.93,16.78,16.78,0,0,1,5.45.86,13.89,13.89,0,0,1,4.52,2.48,2.45,2.45,0,0,1,.79.92,2.81,2.81,0,0,1,.22,1.19,2.52,2.52,0,0,1-.52,1.62,1.59,1.59,0,0,1-1.28.66,3.26,3.26,0,0,1-1.8-.61,13,13,0,0,0-3.52-2,11.33,11.33,0,0,0-3.6-.55c-3,0-5.35,1-6.92,2.86s-2.35,4.7-2.35,8.39.78,6.54,2.35,8.44,3.87,2.86,6.92,2.86a10.4,10.4,0,0,0,3.5-.57,17,17,0,0,0,3.62-1.94,7.22,7.22,0,0,1,.88-.44,2.59,2.59,0,0,1,.92-.17,1.59,1.59,0,0,1,1.28.66,2.52,2.52,0,0,1,.52,1.62,2.87,2.87,0,0,1-.22,1.17,2.43,2.43,0,0,1-.79.94,13.89,13.89,0,0,1-4.52,2.48,16.78,16.78,0,0,1-5.45.86A15.46,15.46,0,0,1,135.05,108.19Z"/><path class="cls-2" d="M162,106.83q-3.3-3.3-3.3-9.63V81.34a2.83,2.83,0,0,1,.75-2,3,3,0,0,1,4,0,2.83,2.83,0,0,1,.75,2V97.51q0,4,1.89,6a7.19,7.19,0,0,0,5.54,2,7.06,7.06,0,0,0,5.49-2.07,8.62,8.62,0,0,0,1.89-6V81.34a2.83,2.83,0,0,1,.75-2,3,3,0,0,1,4,0,2.83,2.83,0,0,1,.75,2V97.2q0,6.28-3.3,9.6t-9.62,3.32Q165.27,110.12,162,106.83Z"/><path class="cls-2" d="M191.77,109a2.61,2.61,0,0,1-.71-1.93V81.34a2.84,2.84,0,1,1,5.67,0v23.73h12.35c1.76,0,2.64.77,2.64,2.33s-.88,2.33-2.64,2.33H193.74A2.64,2.64,0,0,1,191.77,109Z"/><path class="cls-2" d="M218,109.18a2.78,2.78,0,0,1-.77-2.05V83.4h-8c-1.76,0-2.64-.77-2.64-2.33s.88-2.33,2.64-2.33h21.66c1.76,0,2.64.78,2.64,2.33s-.88,2.33-2.64,2.33h-8v23.73a2.65,2.65,0,0,1-2.81,2.82A2.85,2.85,0,0,1,218,109.18Z"/><path class="cls-2" d="M240,106.83q-3.3-3.3-3.3-9.63V81.34a2.83,2.83,0,0,1,.75-2,3,3,0,0,1,4,0,2.83,2.83,0,0,1,.75,2V97.51q0,4,1.89,6a7.19,7.19,0,0,0,5.54,2,7.06,7.06,0,0,0,5.49-2.07,8.62,8.62,0,0,0,1.89-6V81.34a2.83,2.83,0,0,1,.75-2,3,3,0,0,1,4,0,2.83,2.83,0,0,1,.75,2V97.2q0,6.28-3.3,9.6t-9.62,3.32Q243.32,110.12,240,106.83Z"/><path class="cls-2" d="M294.43,107.71a2,2,0,0,1-.82,1.66,2.94,2.94,0,0,1-1.91.66,2.89,2.89,0,0,1-2.42-1.31l-5.84-8.88a5.71,5.71,0,0,0-1.87-2,5.1,5.1,0,0,0-2.57-.57h-4.31v9.84a2.9,2.9,0,0,1-.74,2.09,2.72,2.72,0,0,1-2,.77,2.76,2.76,0,0,1-2-.77,2.83,2.83,0,0,1-.77-2.09V81.42a2.6,2.6,0,0,1,.73-2,2.74,2.74,0,0,1,2-.71h11q5.28,0,8,2.36a8.43,8.43,0,0,1,2.75,6.78,8.61,8.61,0,0,1-2,5.92,9.74,9.74,0,0,1-5.78,3,5.6,5.6,0,0,1,2.24,1.1,9.93,9.93,0,0,1,1.89,2.2l4,6.11A2.78,2.78,0,0,1,294.43,107.71Zm-7.7-16a4.48,4.48,0,0,0,1.5-3.71,4.43,4.43,0,0,0-1.5-3.72,7.68,7.68,0,0,0-4.7-1.16h-7.38v9.8H282A7.39,7.39,0,0,0,286.73,91.73Z"/><path class="cls-2" d="M300.38,109a2.63,2.63,0,0,1-.73-2V81.42a2.64,2.64,0,0,1,.73-2,2.74,2.74,0,0,1,2-.71h15.86a3.07,3.07,0,0,1,2,.57,2,2,0,0,1,.71,1.63,2.08,2.08,0,0,1-.71,1.69,3,3,0,0,1-2,.6H305.19v8.52h12.18a3,3,0,0,1,2,.57,2,2,0,0,1,.71,1.67,2,2,0,0,1-.71,1.63,3,3,0,0,1-2,.57H305.19v9h13.05a3,3,0,0,1,2,.6,2.08,2.08,0,0,1,.71,1.69,2,2,0,0,1-.71,1.63,3.07,3.07,0,0,1-2,.57H302.38A2.74,2.74,0,0,1,300.38,109Z"/><path class="cls-2" d="M148.55,141.4a10.66,10.66,0,0,1-4.3-4.61,17.18,17.18,0,0,1,0-14,10.69,10.69,0,0,1,4.3-4.6,12.94,12.94,0,0,1,6.54-1.61,14.34,14.34,0,0,1,4.54.71,11.9,11.9,0,0,1,3.77,2.07,2.1,2.1,0,0,1,.66.77,2.43,2.43,0,0,1,.18,1,2.08,2.08,0,0,1-.43,1.35,1.33,1.33,0,0,1-1.07.55,2.7,2.7,0,0,1-1.5-.51,10.93,10.93,0,0,0-2.93-1.63,9.44,9.44,0,0,0-3-.46,7.07,7.07,0,0,0-5.77,2.38q-2,2.38-2,7t2,7a7,7,0,0,0,5.77,2.38,8.54,8.54,0,0,0,2.91-.48,13.46,13.46,0,0,0,3-1.61,5.47,5.47,0,0,1,.73-.36,2,2,0,0,1,.77-.15,1.33,1.33,0,0,1,1.07.55,2.12,2.12,0,0,1,.43,1.35,2.48,2.48,0,0,1-.18,1,2,2,0,0,1-.66.78,11.52,11.52,0,0,1-3.77,2.07,14.07,14.07,0,0,1-4.54.72A12.84,12.84,0,0,1,148.55,141.4Z"/><path class="cls-2" d="M169,142.25a2.41,2.41,0,0,1-.64-1.72V119a2.22,2.22,0,0,1,2.35-2.35,2.35,2.35,0,0,1,1.74.65,2.31,2.31,0,0,1,.64,1.7v21.5a2.41,2.41,0,0,1-.64,1.72,2.32,2.32,0,0,1-1.74.66A2.28,2.28,0,0,1,169,142.25Z"/><path class="cls-2" d="M185.39,142.23a2.34,2.34,0,0,1-.64-1.7V120.75h-6.66c-1.47,0-2.2-.65-2.2-1.94s.73-1.94,2.2-1.94h18c1.47,0,2.2.64,2.2,1.94s-.73,1.94-2.2,1.94h-6.66v19.78a2.34,2.34,0,0,1-.64,1.7,2.31,2.31,0,0,1-1.71.64A2.35,2.35,0,0,1,185.39,142.23Z"/><path class="cls-2" d="M219.36,116.68a2.1,2.1,0,0,1,1.5.65,2,2,0,0,1,.66,1.52,2.14,2.14,0,0,1-.55,1.39l-8.31,10.14v10.15a2.28,2.28,0,0,1-.66,1.75,2.34,2.34,0,0,1-1.69.63,2.4,2.4,0,0,1-1.72-.63,2.28,2.28,0,0,1-.66-1.75V130.38l-8.31-10.14a2.19,2.19,0,0,1-.55-1.39,2,2,0,0,1,.66-1.52,2.1,2.1,0,0,1,1.5-.65,2,2,0,0,1,1.58.81l7.5,9.3,7.48-9.3A2,2,0,0,1,219.36,116.68Z"/><path class="cls-2" d="M258,140.82a1.82,1.82,0,0,1-.67,1.43,2.32,2.32,0,0,1-1.56.58,2,2,0,0,1-1.9-1.28l-2.2-4.91H238.81l-2.2,4.91a2.07,2.07,0,0,1-.81,1,2.11,2.11,0,0,1-1.13.31,2.33,2.33,0,0,1-1.54-.58,1.82,1.82,0,0,1-.7-1.43,2.31,2.31,0,0,1,.22-.95l10.11-21.72a2.39,2.39,0,0,1,1-1.12,2.94,2.94,0,0,1,2.89,0,2.39,2.39,0,0,1,1,1.12l10.14,21.72A2.16,2.16,0,0,1,258,140.82ZM240.42,133h9.67l-4.84-10.88Z"/><path class="cls-2" d="M262.23,142.27a2.35,2.35,0,0,1-.64-1.74V119.1a2.2,2.2,0,0,1,.6-1.65,2.29,2.29,0,0,1,1.67-.58h9a9.32,9.32,0,0,1,6.44,2.07,8.46,8.46,0,0,1,0,11.62,9.23,9.23,0,0,1-6.44,2.09h-6.56v7.88a2.35,2.35,0,0,1-.64,1.74,2.39,2.39,0,0,1-1.74.64A2.31,2.31,0,0,1,262.23,142.27Zm10-13.24q4.88,0,4.87-4.25t-4.87-4.25h-6V129Z"/><path class="cls-2" d="M286.4,142.27a2.35,2.35,0,0,1-.64-1.74V119.1a2.2,2.2,0,0,1,.6-1.65,2.29,2.29,0,0,1,1.67-.58h9a9.3,9.3,0,0,1,6.44,2.07,8.46,8.46,0,0,1,0,11.62,9.21,9.21,0,0,1-6.44,2.09h-6.56v7.88a2.35,2.35,0,0,1-.64,1.74,2.39,2.39,0,0,1-1.74.64A2.32,2.32,0,0,1,286.4,142.27ZM296.45,129q4.88,0,4.87-4.25t-4.87-4.25h-6V129Z"/><path class="cls-3" d="M59.72,34.73C79.12,38.3,92,56.4,87.82,74.79,84.1,91.33,67.74,102.26,50,100.06A36.71,36.71,0,0,1,34.71,94.6L0,98.24l23.84-14.6a31.93,31.93,0,0,1-4.42-22.71c3.3-18,21.34-29.68,40.3-26.2ZM38,59.37A6.07,6.07,0,0,1,42.88,67a6.3,6.3,0,0,1-12.17-2.92A6.11,6.11,0,0,1,38,59.37Zm16.53,3a5.92,5.92,0,0,1-1.43,11.76,6,6,0,1,1,1.43-11.76Zm16.26,3A6.06,6.06,0,0,1,75.67,73a6.26,6.26,0,1,1-4.93-7.63Z"/><path class="cls-4" d="M74.57,75a45.52,45.52,0,0,1-10.1-7.19,6.33,6.33,0,0,1,7.21-2.19,6.09,6.09,0,0,1,4.23,6.16A5.76,5.76,0,0,1,74.57,75Z"/><path class="cls-3" d="M91.94.61c-19.22-3.53-37.51,8.58-40.42,27-2.71,17,9.11,33.63,26.86,37.7a36.56,36.56,0,0,0,15.67.2l31.16,15.73-17.1-22.11a31.92,31.92,0,0,0,12.2-19.67C123.6,21.46,110.9,4.09,91.94.61ZM69.78,23.53a6.06,6.06,0,0,1,4.93,7.63,6.3,6.3,0,0,1-12.17-2.92,6.11,6.11,0,0,1,7.24-4.71Zm16.54,3a6.07,6.07,0,0,1,4.93,7.63,6.26,6.26,0,1,1-4.93-7.63Zm16.25,3a6.08,6.08,0,0,1,4.94,7.63,6.26,6.26,0,1,1-4.94-7.63Z"/></g></g></svg>